<svg width="512" height="512" viewBox="0 0 512 512" fill="none" xmlns="http://www.w3.org/2000/svg">
<path d="M260.226 5.33707C305.691 4.43821 343.729 12.5277 374.34 29.6052C404.95 46.6827 428.808 68.7036 445.914 95.6682C454.466 110.049 461.444 126.678 466.846 145.553C467.746 148.699 468.421 152.631 468.871 157.349C469.322 162.068 468.421 165.551 466.17 167.798C463.92 170.944 460.769 172.742 456.717 173.191C452.666 173.641 448.164 173.865 443.213 173.865H399.323C394.371 173.865 389.757 173.753 385.481 173.528C381.204 173.303 377.716 172.068 375.015 169.821C370.964 167.124 368.15 163.304 366.575 158.361C364.999 153.417 363.086 148.698 360.835 144.204C356.784 137.913 352.507 131.958 348.006 126.34C343.504 120.723 338.103 115.667 331.8 111.173C323.247 105.33 312.894 100.612 300.74 97.0163C298.489 96.1175 296.013 95.5557 293.312 95.331C290.611 95.1064 288.136 94.7693 285.885 94.3198C284.534 93.8704 282.509 93.6457 279.808 93.6457C274.406 92.7469 267.654 92.6345 259.551 93.3086C251.448 93.9827 245.146 94.7692 240.645 95.668C237.493 96.5669 234.568 97.241 231.867 97.6904C229.166 98.1398 226.465 99.0386 223.764 100.387C212.06 105.33 201.594 111.173 192.366 117.914C183.138 124.655 175.148 133.194 168.396 143.53C162.093 152.069 157.142 161.282 153.541 171.169C149.939 181.056 146.563 191.617 143.412 202.852C142.062 207.796 141.161 212.739 140.711 217.682C140.261 222.626 139.586 227.569 138.685 232.513V241.276C137.785 243.973 137.448 246.894 137.673 250.04C137.898 253.186 138.01 256.331 138.01 259.477C138.01 267.117 138.235 274.757 138.685 282.397C139.136 290.037 140.261 297.228 142.062 303.969C142.512 305.766 142.737 307.339 142.737 308.687C142.737 310.036 142.962 311.609 143.412 313.406C149.714 336.326 158.267 355.763 169.071 371.717C179.874 387.671 195.404 400.142 215.661 409.13C219.713 410.928 223.876 412.501 228.153 413.849C232.429 415.197 237.044 416.545 241.995 417.894C244.696 418.343 247.284 418.455 249.76 418.231C252.236 418.006 254.599 418.343 256.85 419.242C259.551 420.141 262.927 420.59 266.978 420.59C271.03 420.59 274.631 420.141 277.782 419.242C280.033 418.792 282.059 418.68 283.859 418.905C285.66 419.129 287.46 419.017 289.261 418.568C291.512 418.118 293.425 418.006 295 418.231C296.576 418.455 298.264 418.118 300.065 417.219C306.367 415.422 312.219 413.737 317.621 412.164C323.022 410.591 328.199 408.456 333.151 405.76C344.404 399.018 353.408 391.266 360.16 382.503C366.912 373.739 372.764 362.841 377.716 349.808C379.516 344.865 380.754 339.022 381.43 332.281C382.105 325.54 379.966 320.821 375.015 318.125C372.314 316.327 368.825 315.428 364.549 315.428C360.272 315.428 356.109 315.428 352.057 315.428H317.621C314.92 315.428 311.994 315.541 308.843 315.765C305.692 315.99 302.766 315.653 300.065 314.754H293.988C292.187 314.305 290.387 313.968 288.586 313.743C286.785 313.518 285.21 312.957 283.859 312.058C281.609 310.26 280.033 307.564 279.133 303.969C278.233 300.373 277.67 296.441 277.445 292.172C277.22 287.902 277.22 283.408 277.445 278.689C277.67 273.97 277.782 269.589 277.782 265.544C277.782 261.949 277.895 258.578 278.12 255.432C278.345 252.286 278.908 249.59 279.808 247.343C281.609 243.298 284.085 240.602 287.236 239.254C289.937 238.355 292.187 237.905 293.988 237.905H301.415C302.766 237.456 304.454 237.231 306.48 237.231C308.505 237.231 310.418 237.231 312.219 237.231H331.801H430.384C438.036 237.231 446.702 237.231 456.38 237.231C466.058 237.231 472.473 239.254 475.624 243.298C477.875 246.894 479 251.613 479 257.455C479 263.297 479 268.915 479 274.308V344.415V454.97C479 463.509 478.888 471.71 478.662 479.575C478.437 487.44 475.399 492.495 469.547 494.743C466.846 496.091 463.582 496.765 459.756 496.765C455.93 496.765 452.216 496.765 448.615 496.765C439.612 496.765 431.847 496.428 425.319 495.754C418.792 495.08 414.178 491.597 411.477 485.305C409.677 481.26 408.326 476.766 407.426 471.823C406.526 466.879 404.95 462.61 402.7 459.014C401.799 458.116 400.674 457.105 399.323 455.981C397.973 454.857 396.172 454.521 393.921 454.97C390.32 455.869 387.282 457.666 384.806 460.363C382.33 463.059 379.742 465.531 377.041 467.778C372.539 471.373 368.263 474.632 364.211 477.553C360.16 480.474 355.659 483.507 350.707 486.653C344.855 490.248 338.665 493.17 332.138 495.417C325.611 497.664 318.971 499.911 312.219 502.158C309.968 503.056 307.605 503.618 305.129 503.843C302.653 504.068 300.29 504.405 298.039 504.854C294.438 505.753 290.612 506.202 286.56 506.202C282.509 506.202 278.458 506.652 274.406 507.551C272.606 508 270.017 508.112 266.641 507.888C263.265 507.663 260.902 507.326 259.551 506.876H252.799C250.548 506.427 248.41 506.202 246.385 506.202C244.359 506.202 242.221 505.978 239.97 505.528H234.568C230.967 504.629 227.366 503.955 223.764 503.506C220.163 503.056 216.562 502.383 212.961 501.484C209.81 500.585 206.659 499.798 203.508 499.124C200.356 498.45 197.205 497.664 194.054 496.765C180.55 492.72 168.621 488.001 158.267 482.608C131.708 468.677 110.101 452.161 93.4456 433.061C76.79 413.961 62.6103 390.255 50.9064 361.942C48.2054 355.651 46.1798 349.359 44.8292 343.067C43.4788 336.776 41.6781 330.484 39.4273 324.192C38.9771 321.945 38.7521 320.035 38.7521 318.462C38.7521 316.889 38.302 314.979 37.4017 312.732C36.5014 309.586 36.0513 306.328 36.0513 302.958C36.0513 299.587 35.6012 296.104 34.701 292.509C33.8006 290.262 33.463 288.352 33.6881 286.779C33.9131 285.206 33.8006 283.296 33.3504 281.049V268.915C32.45 266.668 32 263.185 32 258.466C32 253.748 32.4502 250.265 33.3504 248.018V240.602C33.8006 237.906 33.9131 235.097 33.6881 232.176C33.463 229.255 33.8006 226.671 34.701 224.424C35.6013 220.379 36.0513 216.334 36.0513 212.29C36.0513 208.245 36.5015 204.425 37.4017 200.83C38.7521 195.886 39.8775 191.055 40.7779 186.336C41.6782 181.618 43.0287 176.786 44.8292 171.843C47.08 165.551 49.2182 159.372 51.2439 153.305C53.2696 147.238 55.6329 141.283 58.3337 135.441C61.0346 129.149 64.1856 122.97 67.7868 116.903C71.388 110.836 74.9893 105.106 78.5905 99.7128C92.0951 80.8377 107.4 64.7713 124.506 51.5138C141.612 38.2563 162.319 27.1333 186.627 18.1451C191.578 15.8981 196.98 14.2128 202.832 13.0893C208.684 11.9657 214.536 10.7299 220.388 9.38156C222.639 8.4827 225.002 8.0334 227.478 8.0334C229.954 8.0334 232.317 7.58398 234.568 6.68524C237.719 5.78637 240.757 5.56172 243.683 6.01116C246.609 6.46059 249.648 6.23582 252.799 5.33707C253.699 4.88764 254.937 4.88764 256.513 5.33707C258.088 5.78651 259.326 5.78651 260.227 5.33707H260.226Z" fill="#959595"/>
</svg>
