<svg width="39" height="44" viewBox="0 0 39 44" fill="none" xmlns="http://www.w3.org/2000/svg">
<path d="M19.6147 0.0290175C23.5222 -0.0483625 26.7914 0.648035 29.4221 2.11817C32.0529 3.58831 34.1034 5.48401 35.5735 7.80529C36.3086 9.0433 36.9083 10.4748 37.3725 12.0997C37.4499 12.3705 37.5079 12.709 37.5466 13.1152C37.5853 13.5214 37.5079 13.8213 37.3145 14.0147C37.121 14.2855 36.8502 14.4403 36.502 14.479C36.1538 14.5177 35.767 14.537 35.3414 14.537H31.5693C31.1438 14.537 30.7472 14.5273 30.3797 14.508C30.0121 14.4886 29.7123 14.3822 29.4802 14.1888C29.132 13.9567 28.8902 13.6278 28.7548 13.2023C28.6194 12.7767 28.455 12.3705 28.2615 11.9836C27.9133 11.442 27.5458 10.9293 27.1589 10.4457C26.772 9.96213 26.3078 9.52691 25.7661 9.14003C25.0311 8.63709 24.1412 8.23085 23.0967 7.92135C22.9032 7.84397 22.6904 7.79561 22.4583 7.77627C22.2262 7.75693 22.0134 7.72791 21.82 7.68922C21.7039 7.65053 21.5298 7.63119 21.2977 7.63119C20.8334 7.55381 20.2531 7.54414 19.5567 7.60217C18.8603 7.6602 18.3187 7.72791 17.9318 7.80528C17.661 7.88266 17.4095 7.94069 17.1774 7.97938C16.9453 8.01807 16.7131 8.09544 16.481 8.21151C15.4751 8.63708 14.5756 9.14003 13.7825 9.72035C12.9894 10.3007 12.3027 11.0357 11.7224 11.9255C11.1808 12.6606 10.7552 13.4537 10.4457 14.3049C10.1362 15.156 9.84606 16.0652 9.57524 17.0324C9.45918 17.4579 9.3818 17.8835 9.34311 18.3091C9.30442 18.7346 9.24639 19.1602 9.16901 19.5858V20.3402C9.09163 20.5723 9.06262 20.8238 9.08196 21.0946C9.1013 21.3654 9.11098 21.6362 9.11098 21.907C9.11098 22.5647 9.13032 23.2224 9.16901 23.8801C9.2077 24.5378 9.30442 25.1568 9.45917 25.7371C9.49786 25.8919 9.5172 26.0273 9.5172 26.1434C9.5172 26.2594 9.53654 26.3948 9.57523 26.5496C10.1169 28.5227 10.8519 30.1959 11.7804 31.5693C12.709 32.9428 14.0437 34.0163 15.7846 34.7901C16.1328 34.9448 16.4907 35.0803 16.8582 35.1963C17.2258 35.3124 17.6223 35.4284 18.0479 35.5445C18.28 35.5832 18.5025 35.5929 18.7152 35.5735C18.928 35.5542 19.1311 35.5832 19.3246 35.6606C19.5567 35.738 19.8469 35.7766 20.1951 35.7766C20.5433 35.7766 20.8527 35.7379 21.1236 35.6606C21.317 35.6219 21.4911 35.6122 21.6459 35.6316C21.8006 35.6509 21.9554 35.6412 22.1101 35.6025C22.3036 35.5638 22.468 35.5542 22.6034 35.5735C22.7388 35.5929 22.8839 35.5639 23.0386 35.4865C23.5803 35.3317 24.0832 35.1866 24.5475 35.0512C25.0117 34.9158 25.4566 34.7321 25.8822 34.4999C26.8494 33.9196 27.6231 33.2522 28.2035 32.4978C28.7838 31.7434 29.2867 30.8052 29.7123 29.6833C29.8671 29.2577 29.9734 28.7548 30.0315 28.1744C30.0895 27.5941 29.9057 27.1879 29.4802 26.9558C29.248 26.801 28.9482 26.7236 28.5807 26.7236C28.2131 26.7236 27.8553 26.7236 27.5071 26.7236H24.5475C24.3153 26.7236 24.0639 26.7333 23.7931 26.7527C23.5222 26.772 23.2708 26.743 23.0387 26.6656H22.5164C22.3616 26.6269 22.2069 26.5979 22.0521 26.5786C21.8974 26.5592 21.7619 26.5109 21.6459 26.4335C21.4524 26.2787 21.317 26.0466 21.2397 25.7371C21.1623 25.4276 21.1139 25.0891 21.0946 24.7216C21.0752 24.354 21.0752 23.9671 21.0946 23.5609C21.1139 23.1547 21.1236 22.7775 21.1236 22.4293C21.1236 22.1198 21.1333 21.8296 21.1526 21.5588C21.172 21.288 21.2203 21.0559 21.2977 20.8624C21.4524 20.5142 21.6652 20.2821 21.9361 20.1661C22.1682 20.0887 22.3616 20.05 22.5164 20.05H23.1547C23.2708 20.0113 23.4159 19.992 23.59 19.992C23.7641 19.992 23.9285 19.992 24.0832 19.992H25.7662H34.2388C34.8965 19.992 35.6412 19.992 36.473 19.992C37.3048 19.992 37.8561 20.1661 38.127 20.5142C38.3204 20.8237 38.4171 21.23 38.4171 21.7329C38.4171 22.2359 38.4171 22.7195 38.4171 23.1837V29.219V38.7363C38.4171 39.4713 38.4074 40.1774 38.3881 40.8544C38.3688 41.5315 38.1076 41.9667 37.6047 42.1602C37.3725 42.2762 37.092 42.3343 36.7632 42.3343C36.4343 42.3343 36.1152 42.3343 35.8057 42.3343C35.0319 42.3343 34.3645 42.3052 33.8036 42.2472C33.2426 42.1892 32.846 41.8893 32.6139 41.3477C32.4592 40.9995 32.3431 40.6126 32.2657 40.1871C32.1884 39.7615 32.053 39.394 31.8595 39.0845C31.7821 39.0071 31.6854 38.92 31.5694 38.8233C31.4533 38.7266 31.2985 38.6976 31.1051 38.7363C30.7956 38.8137 30.5344 38.9684 30.3217 39.2005C30.1089 39.4327 29.8864 39.6454 29.6543 39.8389C29.2674 40.1484 28.8999 40.4289 28.5517 40.6803C28.2035 40.9318 27.8166 41.193 27.391 41.4638C26.8881 41.7733 26.3561 42.0247 25.7952 42.2182C25.2342 42.4116 24.6635 42.605 24.0832 42.7985C23.8898 42.8759 23.6867 42.9242 23.4739 42.9436C23.2611 42.9629 23.058 42.9919 22.8646 43.0306C22.5551 43.108 22.2262 43.1467 21.878 43.1467C21.5298 43.1467 21.1816 43.1854 20.8335 43.2628C20.6787 43.3014 20.4562 43.3111 20.1661 43.2918C19.8759 43.2724 19.6728 43.2434 19.5567 43.2047H18.9764C18.783 43.166 18.5992 43.1467 18.4251 43.1467C18.251 43.1467 18.0673 43.1273 17.8738 43.0886H17.4096C17.1001 43.0113 16.7906 42.9532 16.4811 42.9145C16.1716 42.8759 15.8621 42.8179 15.5526 42.7405C15.2817 42.6631 15.0109 42.5954 14.7401 42.5373C14.4693 42.4793 14.1985 42.4116 13.9277 42.3342C12.767 41.986 11.7418 41.5798 10.852 41.1156C8.56937 39.9162 6.71235 38.4945 5.2809 36.8502C3.84945 35.206 2.63078 33.1652 1.62489 30.7279C1.39276 30.1862 1.21867 29.6446 1.1026 29.103C0.98654 28.5613 0.831776 28.0197 0.638336 27.4781C0.599646 27.2846 0.580307 27.1202 0.580307 26.9848C0.580307 26.8494 0.541619 26.685 0.464249 26.4916C0.386869 26.2207 0.34819 25.9403 0.34819 25.6501C0.34819 25.3599 0.309502 25.0601 0.232132 24.7506C0.154752 24.5572 0.125741 24.3927 0.145081 24.2573C0.164421 24.1219 0.154748 23.9575 0.116058 23.7641V22.7195C0.0386783 22.5261 0 22.2262 0 21.82C0 21.4138 0.0386883 21.114 0.116058 20.9205V20.2822C0.154748 20.05 0.164421 19.8082 0.145081 19.5568C0.125741 19.3053 0.154752 19.0828 0.232132 18.8894C0.309512 18.5412 0.34819 18.193 0.34819 17.8448C0.34819 17.4966 0.386879 17.1678 0.464249 16.8583C0.580309 16.4327 0.67703 16.0168 0.75441 15.6106C0.83179 15.2044 0.94785 14.7885 1.1026 14.3629C1.29604 13.8213 1.47981 13.2893 1.6539 12.767C1.828 12.2447 2.03111 11.7321 2.26323 11.2292C2.49536 10.6875 2.76617 10.1556 3.07568 9.6333C3.38518 9.11101 3.69469 8.61773 4.00419 8.15348C5.16483 6.52859 6.48022 5.1455 7.95036 4.00421C9.4205 2.86292 11.2002 1.90538 13.2893 1.13162C13.7149 0.938178 14.1791 0.793096 14.6821 0.696376C15.185 0.599656 15.6879 0.493263 16.1909 0.377193C16.3843 0.299813 16.5874 0.261134 16.8002 0.261134C17.013 0.261134 17.2161 0.222446 17.4095 0.145076C17.6804 0.0676959 17.9415 0.0483567 18.193 0.0870467C18.4444 0.125737 18.7056 0.106388 18.9764 0.0290175C19.0538 -0.0096725 19.1602 -0.0096725 19.2956 0.0290175C19.431 0.0677075 19.5374 0.0677075 19.6148 0.0290175H19.6147Z" fill="#959595"/>
</svg>
