<svg width="420" height="44" viewBox="0 0 420 44" fill="none" xmlns="http://www.w3.org/2000/svg">
<path d="M19.6147 0.310512C23.5222 0.233132 26.7914 0.929529 29.4221 2.39967C32.0529 3.86981 34.1034 5.76551 35.5735 8.08679C36.3086 9.3248 36.9083 10.7563 37.3725 12.3812C37.4499 12.652 37.5079 12.9905 37.5466 13.3967C37.5853 13.8029 37.5079 14.1028 37.3145 14.2962C37.121 14.567 36.8502 14.7218 36.502 14.7605C36.1538 14.7992 35.767 14.8185 35.3414 14.8185H31.5693C31.1438 14.8185 30.7472 14.8088 30.3797 14.7895C30.0121 14.7701 29.7123 14.6637 29.4802 14.4703C29.132 14.2382 28.8902 13.9093 28.7548 13.4838C28.6194 13.0582 28.455 12.652 28.2615 12.2651C27.9133 11.7235 27.5458 11.2108 27.1589 10.7272C26.772 10.2436 26.3078 9.8084 25.7661 9.42152C25.0311 8.91858 24.1412 8.51235 23.0967 8.20285C22.9032 8.12547 22.6904 8.07711 22.4583 8.05777C22.2262 8.03843 22.0134 8.0094 21.82 7.97071C21.7039 7.93202 21.5298 7.91268 21.2977 7.91268C20.8334 7.8353 20.2531 7.82563 19.5567 7.88366C18.8603 7.94169 18.3187 8.0094 17.9318 8.08677C17.661 8.16415 17.4095 8.22218 17.1774 8.26087C16.9453 8.29956 16.7131 8.37694 16.481 8.49301C15.4751 8.91858 14.5756 9.42152 13.7825 10.0018C12.9894 10.5822 12.3027 11.3172 11.7224 12.207C11.1808 12.9421 10.7552 13.7352 10.4457 14.5864C10.1362 15.4375 9.84606 16.3467 9.57524 17.3139C9.45918 17.7394 9.3818 18.165 9.34311 18.5906C9.30442 19.0161 9.24639 19.4417 9.16901 19.8673V20.6217C9.09163 20.8538 9.06262 21.1053 9.08196 21.3761C9.1013 21.6469 9.11098 21.9177 9.11098 22.1885C9.11098 22.8462 9.13032 23.5039 9.16901 24.1616C9.2077 24.8193 9.30442 25.4383 9.45917 26.0186C9.49786 26.1734 9.5172 26.3088 9.5172 26.4248C9.5172 26.5409 9.53654 26.6763 9.57523 26.8311C10.1169 28.8041 10.8519 30.4774 11.7804 31.8508C12.709 33.2242 14.0437 34.2978 15.7846 35.0716C16.1328 35.2263 16.4907 35.3617 16.8582 35.4778C17.2258 35.5939 17.6223 35.7099 18.0479 35.826C18.28 35.8647 18.5025 35.8744 18.7152 35.855C18.928 35.8357 19.1311 35.8647 19.3246 35.9421C19.5567 36.0195 19.8469 36.0581 20.1951 36.0581C20.5433 36.0581 20.8527 36.0194 21.1236 35.9421C21.317 35.9034 21.4911 35.8937 21.6459 35.9131C21.8006 35.9324 21.9554 35.9227 22.1101 35.884C22.3036 35.8453 22.468 35.8357 22.6034 35.855C22.7388 35.8744 22.8839 35.8454 23.0386 35.768C23.5803 35.6132 24.0832 35.4681 24.5475 35.3327C25.0117 35.1973 25.4566 35.0135 25.8822 34.7814C26.8494 34.2011 27.6231 33.5337 28.2035 32.7793C28.7838 32.0249 29.2867 31.0867 29.7123 29.9648C29.8671 29.5392 29.9734 29.0363 30.0315 28.4559C30.0895 27.8756 29.9057 27.4694 29.4802 27.2373C29.248 27.0825 28.9482 27.0051 28.5807 27.0051C28.2131 27.0051 27.8553 27.0051 27.5071 27.0051H24.5475C24.3153 27.0051 24.0639 27.0148 23.7931 27.0342C23.5222 27.0535 23.2708 27.0245 23.0387 26.9471H22.5164C22.3616 26.9084 22.2069 26.8794 22.0521 26.8601C21.8974 26.8407 21.7619 26.7924 21.6459 26.715C21.4524 26.5602 21.317 26.3281 21.2397 26.0186C21.1623 25.7091 21.1139 25.3706 21.0946 25.003C21.0752 24.6355 21.0752 24.2486 21.0946 23.8424C21.1139 23.4362 21.1236 23.059 21.1236 22.7108C21.1236 22.4013 21.1333 22.1111 21.1526 21.8403C21.172 21.5695 21.2203 21.3374 21.2977 21.1439C21.4524 20.7957 21.6652 20.5636 21.9361 20.4476C22.1682 20.3702 22.3616 20.3315 22.5164 20.3315H23.1547C23.2708 20.2928 23.4159 20.2734 23.59 20.2734C23.7641 20.2734 23.9285 20.2734 24.0832 20.2734H25.7662H34.2388C34.8965 20.2734 35.6412 20.2734 36.473 20.2734C37.3048 20.2734 37.8561 20.4476 38.127 20.7957C38.3204 21.1052 38.4171 21.5115 38.4171 22.0144C38.4171 22.5174 38.4171 23.001 38.4171 23.4652V29.5005V39.0178C38.4171 39.7528 38.4074 40.4589 38.3881 41.1359C38.3688 41.813 38.1076 42.2482 37.6047 42.4416C37.3725 42.5577 37.092 42.6157 36.7632 42.6157C36.4343 42.6157 36.1152 42.6157 35.8057 42.6157C35.0319 42.6157 34.3645 42.5867 33.8036 42.5287C33.2426 42.4707 32.846 42.1708 32.6139 41.6292C32.4592 41.281 32.3431 40.8941 32.2657 40.4686C32.1884 40.043 32.053 39.6755 31.8595 39.3659C31.7821 39.2886 31.6854 39.2015 31.5694 39.1048C31.4533 39.0081 31.2985 38.9791 31.1051 39.0178C30.7956 39.0952 30.5344 39.2499 30.3217 39.482C30.1089 39.7142 29.8864 39.9269 29.6543 40.1204C29.2674 40.4299 28.8999 40.7104 28.5517 40.9618C28.2035 41.2133 27.8166 41.4745 27.391 41.7453C26.8881 42.0548 26.3561 42.3062 25.7952 42.4997C25.2342 42.6931 24.6635 42.8865 24.0832 43.08C23.8898 43.1574 23.6867 43.2057 23.4739 43.2251C23.2611 43.2444 23.058 43.2734 22.8646 43.3121C22.5551 43.3895 22.2262 43.4282 21.878 43.4282C21.5298 43.4282 21.1816 43.4669 20.8335 43.5442C20.6787 43.5829 20.4562 43.5926 20.1661 43.5733C19.8759 43.5539 19.6728 43.5249 19.5567 43.4862H18.9764C18.783 43.4475 18.5992 43.4282 18.4251 43.4282C18.251 43.4282 18.0673 43.4088 17.8738 43.3701H17.4096C17.1001 43.2928 16.7906 43.2347 16.4811 43.196C16.1716 43.1574 15.8621 43.0993 15.5526 43.022C15.2817 42.9446 15.0109 42.8769 14.7401 42.8188C14.4693 42.7608 14.1985 42.6931 13.9277 42.6157C12.767 42.2675 11.7418 41.8613 10.852 41.3971C8.56937 40.1977 6.71235 38.776 5.2809 37.1317C3.84945 35.4875 2.63078 33.4467 1.62489 31.0094C1.39276 30.4677 1.21867 29.9261 1.1026 29.3845C0.98654 28.8428 0.831776 28.3012 0.638336 27.7596C0.599646 27.5661 0.580307 27.4017 0.580307 27.2663C0.580307 27.1309 0.541619 26.9665 0.464249 26.7731C0.386869 26.5022 0.34819 26.2218 0.34819 25.9316C0.34819 25.6414 0.309502 25.3416 0.232132 25.0321C0.154752 24.8387 0.125741 24.6742 0.145081 24.5388C0.164421 24.4034 0.154748 24.239 0.116058 24.0456V23.001C0.0386783 22.8075 0 22.5077 0 22.1015C0 21.6953 0.0386883 21.3954 0.116058 21.202V20.5637C0.154748 20.3315 0.164421 20.0897 0.145081 19.8383C0.125741 19.5868 0.154752 19.3643 0.232132 19.1709C0.309512 18.8227 0.34819 18.4745 0.34819 18.1263C0.34819 17.7781 0.386879 17.4493 0.464249 17.1398C0.580309 16.7142 0.67703 16.2983 0.75441 15.8921C0.83179 15.4859 0.94785 15.07 1.1026 14.6444C1.29604 14.1028 1.47981 13.5708 1.6539 13.0485C1.828 12.5262 2.03111 12.0136 2.26323 11.5107C2.49536 10.969 2.76617 10.4371 3.07568 9.91479C3.38518 9.3925 3.69469 8.89923 4.00419 8.43498C5.16483 6.81009 6.48022 5.42699 7.95036 4.2857C9.4205 3.14441 11.2002 2.18687 13.2893 1.41311C13.7149 1.21967 14.1791 1.07459 14.6821 0.97787C15.185 0.88115 15.6879 0.774757 16.1909 0.658687C16.3843 0.581307 16.5874 0.542628 16.8002 0.542628C17.013 0.542628 17.2161 0.50394 17.4095 0.42657C17.6804 0.34919 17.9415 0.329851 18.193 0.368541C18.4444 0.407231 18.7056 0.387882 18.9764 0.310512C19.0538 0.271822 19.1602 0.271822 19.2956 0.310512C19.431 0.349202 19.5374 0.349202 19.6148 0.310512H19.6147Z" fill="#2D2926"/>
<path d="M47.4701 1.35513H69.174H74.2228C74.687 1.35513 75.1319 1.37447 75.5575 1.41316C75.9831 1.45185 76.2925 1.60661 76.486 1.87743C76.5634 1.99349 76.6117 2.1289 76.6311 2.28365C76.6504 2.4384 76.6988 2.59313 76.7761 2.74789V3.38625C76.8148 3.65707 76.8245 3.94722 76.8052 4.25673C76.7858 4.56623 76.7761 4.85639 76.7761 5.12721C76.7761 5.43671 76.7858 5.73654 76.8052 6.0267C76.8245 6.31686 76.8148 6.59735 76.7761 6.86816C76.7375 7.0616 76.7181 7.35175 76.7181 7.73863C76.6021 8.20289 76.4086 8.51239 76.1378 8.66714C75.9057 8.82189 75.6155 8.89928 75.2673 8.89928C74.9191 8.89928 74.5516 8.89928 74.1647 8.89928H70.1605H59.6567C59.3472 8.89928 58.9894 8.8896 58.5832 8.87025C58.1769 8.85091 57.7707 8.85091 57.3645 8.87025C56.9583 8.88959 56.5811 8.92828 56.2329 8.98631C55.8847 9.04434 55.6332 9.13141 55.4785 9.24747C55.2076 9.44091 55.0432 9.72138 54.9852 10.0889C54.9272 10.4565 54.8981 10.8723 54.8981 11.3366V14.6444V16.3273C54.9755 16.6368 55.0529 16.898 55.1303 17.1108C55.2076 17.3236 55.343 17.488 55.5365 17.604C55.7686 17.7588 56.0394 17.8458 56.3489 17.8652C56.6584 17.8845 56.9873 17.8942 57.3355 17.8942H60.4692H70.4507C70.7215 17.8942 71.06 17.8845 71.4662 17.8652C71.8725 17.8458 72.269 17.8458 72.6559 17.8652C73.0428 17.8845 73.4006 17.9135 73.7295 17.9522C74.0583 17.9909 74.3001 18.0683 74.4549 18.1844C74.6483 18.3004 74.7837 18.5326 74.8611 18.8808C74.9385 19.2289 74.9868 19.6062 75.0062 20.0124C75.0255 20.4186 75.0255 20.8345 75.0062 21.2601C74.9868 21.6856 74.9772 22.0532 74.9772 22.3627C74.9772 22.6335 74.9772 22.9043 74.9772 23.1751C74.9772 23.4459 74.9385 23.6781 74.8611 23.8715C74.7837 24.181 74.629 24.4325 74.3968 24.6259C74.2034 24.742 73.9423 24.8193 73.6134 24.858C73.2846 24.8967 72.917 24.9161 72.5108 24.9161C72.1046 24.9161 71.6984 24.9064 71.2921 24.8871C70.8859 24.8677 70.5474 24.858 70.2766 24.858H58.9604C58.4961 24.858 58.0512 24.8484 57.6256 24.829C57.2001 24.8097 56.8035 24.829 56.436 24.887C56.0684 24.9451 55.7589 25.0611 55.5075 25.2352C55.256 25.4093 55.0722 25.6705 54.9562 26.0187C54.9175 26.2121 54.8981 26.4152 54.8981 26.628C54.8981 26.8408 54.8981 27.0439 54.8981 27.2373V29.4425V32.6923C54.8981 33.1566 54.9272 33.5725 54.9852 33.94C55.0432 34.3075 55.2076 34.588 55.4785 34.7815C55.5945 34.8975 55.7396 34.9652 55.9137 34.9846C56.0878 35.0039 56.2715 35.0523 56.465 35.1297H57.0453C57.2388 35.1683 57.4515 35.178 57.6837 35.1587C57.9158 35.1393 58.1286 35.1297 58.322 35.1297H60.7594H71.6693H74.745C75.0545 35.1297 75.3544 35.1297 75.6445 35.1297C75.9347 35.1297 76.1958 35.1877 76.428 35.3038C76.7375 35.4198 76.9502 35.6326 77.0663 35.9421C77.1437 36.1355 77.192 36.3677 77.2114 36.6385C77.2307 36.9093 77.2404 37.1995 77.2404 37.509V40.1784C77.2404 40.6427 77.2211 41.0779 77.1824 41.4842C77.1437 41.8904 76.9696 42.1902 76.6601 42.3837C76.428 42.5771 76.1281 42.6738 75.7606 42.6738C75.3931 42.6738 74.9965 42.6738 74.5709 42.6738H70.2186H53.0411H48.4566C47.915 42.6738 47.441 42.6448 47.0348 42.5868C46.6286 42.5287 46.3288 42.345 46.1353 42.0355C45.9806 41.8033 45.9032 41.5035 45.9032 41.136C45.9032 40.7684 45.9032 40.4106 45.9032 40.0624V35.8841V20.0994V7.44846V3.85048C45.9032 3.50229 45.9032 3.1541 45.9032 2.80591C45.9032 2.45772 45.9806 2.18689 46.1353 1.99345C46.2901 1.72263 46.5802 1.52921 47.0058 1.41315C47.0832 1.37446 47.1606 1.36478 47.2379 1.38412C47.3153 1.40346 47.3927 1.39379 47.4701 1.3551L47.4701 1.35513Z" fill="#2D2926"/>
<path d="M118.385 41.397C118.462 41.6292 118.453 41.8419 118.356 42.0354C118.259 42.2288 118.153 42.3642 118.037 42.4416C117.805 42.635 117.486 42.7221 117.079 42.7027C116.673 42.6834 116.257 42.6737 115.832 42.6737H112.64C112.021 42.6737 111.479 42.6447 111.015 42.5867C110.551 42.5287 110.203 42.3062 109.97 41.9193C109.661 41.4164 109.487 40.7974 109.448 40.0623C109.409 39.3272 109.313 38.6308 109.158 37.9731C109.158 37.8184 109.148 37.6733 109.129 37.5379C109.11 37.4025 109.1 37.2768 109.1 37.1607C108.984 36.6964 108.926 36.2032 108.926 35.6809C108.926 35.1586 108.887 34.6847 108.81 34.2591C108.771 34.143 108.752 33.9689 108.752 33.7368C108.674 33.3112 108.607 32.876 108.549 32.4311C108.491 31.9862 108.404 31.5509 108.287 31.1254C107.978 30.2355 107.61 29.4425 107.185 28.7461C106.759 28.0497 106.16 27.5274 105.386 27.1792C105.192 27.1018 104.999 27.0438 104.806 27.0051C104.612 26.9664 104.399 26.9084 104.167 26.831C103.471 26.5989 102.668 26.4828 101.759 26.4828C100.85 26.4828 99.9502 26.4828 99.0604 26.4828H94.3018C93.9923 26.5602 93.7215 26.6182 93.4893 26.6569C93.2572 26.6956 93.0638 26.8117 92.909 27.0051C92.5995 27.392 92.4641 27.9916 92.5028 28.8041C92.5415 29.6165 92.5608 30.3516 92.5608 31.0093V38.4374C92.5608 38.7469 92.5512 39.0661 92.5318 39.3949C92.5125 39.7238 92.5028 40.0429 92.5028 40.3524C92.5028 40.6619 92.5028 40.9424 92.5028 41.1939C92.5028 41.4454 92.4641 41.6678 92.3867 41.8613C92.2707 42.2095 92.0385 42.4416 91.6904 42.5576C91.4969 42.635 91.2648 42.6737 90.994 42.6737C90.7231 42.6737 90.433 42.6737 90.1235 42.6737H87.5121C86.893 42.6737 86.2353 42.6834 85.539 42.7027C84.8426 42.7221 84.3203 42.5963 83.9721 42.3255C83.6626 42.1321 83.5078 41.7742 83.5078 41.2519C83.5078 40.7296 83.5078 40.217 83.5078 39.7141V4.43069C83.5078 4.00512 83.4982 3.56021 83.4788 3.09596C83.4595 2.6317 83.5465 2.26417 83.74 1.99335C83.8947 1.76122 84.1849 1.56777 84.6104 1.41302C84.6878 1.37433 84.7749 1.36466 84.8716 1.384C84.9683 1.40334 85.0554 1.39367 85.1327 1.35498H104.864C105.483 1.35498 106.073 1.36465 106.634 1.384C107.195 1.40334 107.726 1.47105 108.229 1.58711C108.423 1.66449 108.626 1.70317 108.839 1.70317C109.052 1.70317 109.255 1.74187 109.448 1.81924C109.719 1.89662 109.99 1.97398 110.261 2.05136C110.531 2.12874 110.802 2.22546 111.073 2.34152C112.04 2.76709 112.93 3.28938 113.742 3.90839C114.555 4.5274 115.232 5.24312 115.774 6.05557C115.928 6.24901 116.054 6.45212 116.151 6.6649C116.247 6.87768 116.373 7.0808 116.528 7.27423C116.837 7.81586 117.07 8.37684 117.224 8.95715C117.379 9.53747 117.553 10.1758 117.747 10.8722C117.785 11.0269 117.795 11.1817 117.776 11.3365C117.756 11.4912 117.785 11.646 117.863 11.8007V12.323C117.94 12.6325 117.959 13.0097 117.921 13.4546C117.882 13.8995 117.824 14.2574 117.747 14.5282C117.669 14.8377 117.631 15.1182 117.631 15.3697C117.631 15.6211 117.592 15.8823 117.515 16.1531C117.321 16.7334 117.128 17.2847 116.934 17.807C116.741 18.3293 116.489 18.8226 116.18 19.2868C116.102 19.4029 116.006 19.5286 115.89 19.664C115.774 19.7994 115.677 19.9252 115.599 20.0412C115.483 20.196 115.358 20.3507 115.222 20.5055C115.087 20.6603 114.942 20.7957 114.787 20.9117C114.555 21.1052 114.323 21.2986 114.091 21.4921C113.859 21.6855 113.607 21.8789 113.336 22.0724C113.181 22.1884 113.027 22.3142 112.872 22.4496C112.717 22.585 112.601 22.7494 112.524 22.9428C112.446 23.175 112.485 23.3684 112.64 23.5232C112.795 23.6779 112.93 23.794 113.046 23.8714C113.433 24.1809 113.82 24.4904 114.207 24.7999C114.594 25.1094 114.922 25.4769 115.193 25.9025C115.658 26.5602 116.025 27.2372 116.296 27.9336C116.567 28.63 116.818 29.4231 117.05 30.3129C117.128 30.6611 117.176 31.0286 117.195 31.4155C117.215 31.8024 117.263 32.1699 117.34 32.5181C117.34 32.7503 117.35 32.9727 117.369 33.1855C117.389 33.3983 117.398 33.6207 117.398 33.8529C117.437 34.0076 117.447 34.172 117.428 34.3461C117.408 34.5202 117.418 34.704 117.457 34.8974C117.495 35.0522 117.505 35.2069 117.486 35.3617C117.466 35.5164 117.476 35.6905 117.515 35.884C117.592 36.2709 117.631 36.6771 117.631 37.1027C117.631 37.5282 117.669 37.9345 117.747 38.3213L117.921 39.3659C117.998 39.7141 118.076 40.0623 118.153 40.4105C118.23 40.7587 118.308 41.0875 118.385 41.397L118.385 41.397ZM108.81 15.2247C108.887 14.7991 108.897 14.2768 108.839 13.6578C108.781 13.0388 108.713 12.5745 108.636 12.265C108.558 12.1103 108.52 11.9749 108.52 11.8588C108.52 11.7428 108.481 11.6267 108.404 11.5106C107.939 10.3113 107.088 9.44083 105.85 8.89919C105.192 8.58969 104.438 8.41558 103.587 8.37689C102.736 8.3382 101.846 8.31886 100.917 8.31886H94.1857C94.1084 8.39624 94.031 8.42525 93.9536 8.40591C93.8762 8.38657 93.7989 8.37689 93.7215 8.37689C93.2572 8.49295 92.9477 8.68639 92.793 8.95721C92.5995 9.26671 92.5125 9.66325 92.5318 10.1469C92.5512 10.6305 92.5608 11.1044 92.5608 11.5686V16.9656C92.5608 17.4299 92.5608 17.8941 92.5608 18.3584C92.5608 18.8226 92.6576 19.1902 92.851 19.461C93.0058 19.6931 93.2572 19.8479 93.6054 19.9252C93.9536 20.0026 94.3405 20.0607 94.766 20.0993C95.1916 20.138 95.6365 20.1477 96.1008 20.1284C96.565 20.109 96.9713 20.0993 97.3195 20.0993H100.743C101.014 20.0993 101.304 20.109 101.614 20.1284C101.923 20.1477 102.194 20.1187 102.426 20.0413H103.181C103.49 19.9639 103.79 19.9253 104.08 19.9253C104.37 19.9253 104.651 19.8866 104.922 19.8092C105.579 19.6158 106.16 19.3643 106.663 19.0548C107.166 18.7453 107.591 18.3391 107.939 17.8361C108.171 17.4879 108.346 17.101 108.462 16.6755C108.578 16.2499 108.694 15.7663 108.81 15.2247L108.81 15.2247Z" fill="#2D2926"/>
<path d="M160.458 39.9464C160.497 40.1011 160.565 40.2946 160.661 40.5267C160.758 40.7588 160.835 41.0006 160.893 41.2521C160.951 41.5035 160.961 41.7453 160.922 41.9775C160.884 42.2096 160.748 42.3837 160.516 42.4998C160.207 42.6932 159.694 42.7706 158.978 42.7319C158.263 42.6932 157.673 42.6739 157.208 42.6739H154.481C154.171 42.6739 153.891 42.6835 153.639 42.7029C153.388 42.7222 153.146 42.6932 152.914 42.6158C152.488 42.4998 152.179 42.2677 151.986 41.9195C151.792 41.61 151.647 41.2811 151.55 40.9329C151.454 40.5847 151.328 40.2365 151.173 39.8883C150.98 39.2693 150.777 38.6503 150.564 38.0313C150.351 37.4123 150.129 36.8127 149.896 36.2323C149.78 35.8842 149.674 35.565 149.577 35.2748C149.48 34.9846 149.374 34.7235 149.258 34.4914C149.142 34.2592 148.968 34.0561 148.736 33.882C148.504 33.7079 148.194 33.5822 147.807 33.5048C147.614 33.5048 147.43 33.4952 147.256 33.4758C147.082 33.4565 146.898 33.4468 146.705 33.4468H137.536C136.878 33.4468 136.172 33.4371 135.417 33.4178C134.663 33.3984 134.073 33.5435 133.647 33.853C133.338 34.0852 133.125 34.3946 133.009 34.7815C132.893 35.1684 132.758 35.5553 132.603 35.9422C132.293 36.5999 132.032 37.2866 131.819 38.0023C131.607 38.718 131.365 39.4241 131.094 40.1204C130.939 40.5073 130.794 40.9136 130.659 41.3391C130.523 41.7647 130.301 42.0935 129.991 42.3257C129.798 42.4804 129.518 42.5868 129.15 42.6448C128.782 42.7029 128.376 42.7319 127.931 42.7319C127.486 42.7319 127.032 42.7222 126.568 42.7029C126.103 42.6835 125.697 42.6739 125.349 42.6739C124.846 42.6739 124.237 42.6835 123.521 42.7029C122.805 42.7222 122.293 42.6352 121.983 42.4417C121.79 42.3257 121.683 42.1516 121.664 41.9194C121.645 41.6873 121.664 41.4455 121.722 41.194C121.78 40.9426 121.848 40.7008 121.925 40.4686C122.002 40.2365 122.08 40.0431 122.157 39.8883C122.544 38.9985 122.902 38.0893 123.231 37.1608C123.56 36.2323 123.898 35.3232 124.246 34.4333C124.401 34.1238 124.517 33.8143 124.594 33.5048C124.672 33.1953 124.788 32.8858 124.943 32.5763C125.252 31.7639 125.562 30.9321 125.871 30.0809C126.181 29.2298 126.49 28.398 126.8 27.5856C127.109 26.8118 127.399 26.0477 127.67 25.2933C127.941 24.5389 128.231 23.7748 128.541 23.0011C129.43 20.8732 130.253 18.726 131.007 16.5595C131.761 14.393 132.584 12.2458 133.473 10.118C133.551 9.92452 133.609 9.75042 133.647 9.59567C133.686 9.44092 133.744 9.26683 133.822 9.07339C134.131 8.26094 134.441 7.42915 134.75 6.57802C135.06 5.72689 135.388 4.8951 135.737 4.08265C135.93 3.65708 136.094 3.22184 136.23 2.77693C136.365 2.33202 136.607 1.97416 136.955 1.70334C137.149 1.58728 137.4 1.49055 137.71 1.41317C137.787 1.37448 137.864 1.36481 137.942 1.38415C138.019 1.40349 138.097 1.39382 138.174 1.35513H143.281C143.706 1.35513 144.142 1.34547 144.586 1.32612C145.031 1.30678 145.389 1.39382 145.66 1.58726C146.086 1.81939 146.366 2.1579 146.502 2.60281C146.637 3.04772 146.801 3.50231 146.995 3.96657C147.266 4.62426 147.517 5.27229 147.749 5.91064C147.981 6.54899 148.233 7.197 148.504 7.8547C148.581 8.08683 148.658 8.31896 148.736 8.55108C148.813 8.78321 148.891 9.01534 148.968 9.24746C149.277 10.0212 149.568 10.7853 149.838 11.5397C150.109 12.2941 150.399 13.0582 150.709 13.832C151.483 15.7664 152.208 17.7201 152.885 19.6932C153.562 21.6663 154.307 23.62 155.119 25.5544C155.197 25.7092 155.245 25.8543 155.264 25.9897C155.284 26.1251 155.332 26.2702 155.409 26.4249C155.642 27.0439 155.874 27.6629 156.106 28.2819C156.338 28.9009 156.57 29.5199 156.802 30.1389C156.957 30.4484 157.073 30.7483 157.15 31.0384C157.228 31.3286 157.324 31.6284 157.441 31.9379C157.943 33.1759 158.408 34.414 158.833 35.652C159.259 36.89 159.723 38.1086 160.226 39.308C160.303 39.424 160.342 39.5304 160.342 39.6272C160.342 39.7239 160.381 39.8303 160.458 39.9463L160.458 39.9464ZM145.428 26.6571C145.931 26.4636 146.163 26.1348 146.124 25.6705C146.086 25.2063 145.97 24.7613 145.776 24.3358C145.699 24.181 145.66 24.036 145.66 23.9005C145.66 23.7651 145.621 23.6201 145.544 23.4653C145.041 22.1499 144.577 20.8152 144.151 19.4611C143.726 18.107 143.242 16.753 142.7 15.3989C142.623 15.2054 142.546 14.9636 142.468 14.6735C142.391 14.3833 142.294 14.1125 142.178 13.861C142.062 13.6096 141.927 13.3871 141.772 13.1937C141.617 13.0002 141.424 12.9035 141.192 12.9035C141.114 12.9809 141.037 13.0389 140.959 13.0776C140.882 13.1163 140.805 13.1743 140.727 13.2517C140.418 13.6386 140.195 14.1028 140.06 14.6445C139.925 15.1861 139.76 15.7084 139.567 16.2113C139.102 17.2946 138.687 18.3972 138.319 19.5191C137.951 20.6411 137.555 21.763 137.129 22.885C136.975 23.2719 136.839 23.6491 136.723 24.0166C136.607 24.3842 136.491 24.7807 136.375 25.2063C136.259 25.5158 136.278 25.864 136.433 26.2508C136.626 26.5217 136.946 26.6764 137.391 26.7151C137.835 26.7538 138.29 26.7731 138.754 26.7731H143.165C143.513 26.7731 143.9 26.7731 144.325 26.7731C144.751 26.7731 145.118 26.7344 145.428 26.6571V26.6571Z" fill="#2D2926"/>
<path d="M200.036 41.397C200.113 41.6292 200.104 41.8419 200.007 42.0354C199.91 42.2288 199.804 42.3642 199.688 42.4416C199.456 42.635 199.136 42.7221 198.73 42.7027C198.324 42.6834 197.908 42.6737 197.483 42.6737H194.291C193.672 42.6737 193.13 42.6447 192.666 42.5867C192.202 42.5287 191.853 42.3062 191.621 41.9193C191.312 41.4164 191.138 40.7974 191.099 40.0623C191.06 39.3272 190.964 38.6308 190.809 37.9731C190.809 37.8184 190.799 37.6733 190.78 37.5379C190.76 37.4025 190.751 37.2768 190.751 37.1607C190.635 36.6964 190.577 36.2032 190.577 35.6809C190.577 35.1586 190.538 34.6847 190.461 34.2591C190.422 34.143 190.403 33.9689 190.403 33.7368C190.325 33.3112 190.258 32.876 190.199 32.4311C190.141 31.9862 190.054 31.5509 189.938 31.1254C189.629 30.2355 189.261 29.4425 188.836 28.7461C188.41 28.0497 187.811 27.5274 187.037 27.1792C186.843 27.1018 186.65 27.0438 186.456 27.0051C186.263 26.9664 186.05 26.9084 185.818 26.831C185.122 26.5989 184.319 26.4828 183.41 26.4828C182.501 26.4828 181.601 26.4828 180.711 26.4828H175.953C175.643 26.5602 175.372 26.6182 175.14 26.6569C174.908 26.6956 174.715 26.8117 174.56 27.0051C174.25 27.392 174.115 27.9916 174.154 28.8041C174.192 29.6165 174.212 30.3516 174.212 31.0093V38.4374C174.212 38.7469 174.202 39.0661 174.183 39.3949C174.163 39.7238 174.154 40.0429 174.154 40.3524C174.154 40.6619 174.154 40.9424 174.154 41.1939C174.154 41.4454 174.115 41.6678 174.038 41.8613C173.922 42.2095 173.689 42.4416 173.341 42.5576C173.148 42.635 172.916 42.6737 172.645 42.6737C172.374 42.6737 172.084 42.6737 171.774 42.6737H169.163C168.544 42.6737 167.886 42.6834 167.19 42.7027C166.493 42.7221 165.971 42.5963 165.623 42.3255C165.313 42.1321 165.159 41.7742 165.159 41.2519C165.159 40.7296 165.159 40.217 165.159 39.7141V4.43069C165.159 4.00512 165.149 3.56021 165.13 3.09596C165.11 2.6317 165.197 2.26417 165.391 1.99335C165.546 1.76122 165.836 1.56777 166.261 1.41302C166.339 1.37433 166.426 1.36466 166.522 1.384C166.619 1.40334 166.706 1.39367 166.784 1.35498H186.514C187.133 1.35498 187.723 1.36465 188.284 1.384C188.845 1.40334 189.377 1.47105 189.88 1.58711C190.074 1.66449 190.277 1.70317 190.49 1.70317C190.702 1.70317 190.906 1.74187 191.099 1.81924C191.37 1.89662 191.641 1.97398 191.911 2.05136C192.182 2.12874 192.453 2.22546 192.724 2.34152C193.691 2.76709 194.581 3.28938 195.393 3.90839C196.206 4.5274 196.883 5.24312 197.424 6.05557C197.579 6.24901 197.705 6.45212 197.802 6.6649C197.898 6.87768 198.024 7.0808 198.179 7.27423C198.488 7.81586 198.721 8.37684 198.875 8.95715C199.03 9.53747 199.204 10.1758 199.398 10.8722C199.436 11.0269 199.446 11.1817 199.427 11.3365C199.407 11.4912 199.436 11.646 199.514 11.8007V12.323C199.591 12.6325 199.61 13.0097 199.572 13.4546C199.533 13.8995 199.475 14.2574 199.398 14.5282C199.32 14.8377 199.281 15.1182 199.281 15.3697C199.281 15.6211 199.243 15.8823 199.165 16.1531C198.972 16.7334 198.779 17.2847 198.585 17.807C198.392 18.3293 198.14 18.8226 197.831 19.2868C197.753 19.4029 197.657 19.5286 197.541 19.664C197.424 19.7994 197.328 19.9252 197.25 20.0412C197.134 20.196 197.009 20.3507 196.873 20.5055C196.738 20.6603 196.593 20.7957 196.438 20.9117C196.206 21.1052 195.974 21.2986 195.742 21.4921C195.509 21.6855 195.258 21.8789 194.987 22.0724C194.832 22.1884 194.678 22.3142 194.523 22.4496C194.368 22.585 194.252 22.7494 194.175 22.9428C194.097 23.175 194.136 23.3684 194.291 23.5232C194.445 23.6779 194.581 23.794 194.697 23.8714C195.084 24.1809 195.471 24.4904 195.858 24.7999C196.244 25.1094 196.573 25.4769 196.844 25.9025C197.308 26.5602 197.676 27.2372 197.947 27.9336C198.218 28.63 198.469 29.4231 198.701 30.3129C198.779 30.6611 198.827 31.0286 198.846 31.4155C198.866 31.8024 198.914 32.1699 198.991 32.5181C198.991 32.7503 199.001 32.9727 199.02 33.1855C199.04 33.3983 199.049 33.6207 199.049 33.8529C199.088 34.0076 199.098 34.172 199.078 34.3461C199.059 34.5202 199.069 34.704 199.107 34.8974C199.146 35.0522 199.156 35.2069 199.136 35.3617C199.117 35.5164 199.127 35.6905 199.165 35.884C199.243 36.2709 199.282 36.6771 199.282 37.1027C199.282 37.5282 199.32 37.9345 199.398 38.3213L199.572 39.3659C199.649 39.7141 199.726 40.0623 199.804 40.4105C199.881 40.7587 199.959 41.0875 200.036 41.397V41.397ZM190.461 15.2247C190.538 14.7991 190.548 14.2768 190.49 13.6578C190.432 13.0388 190.364 12.5745 190.287 12.265C190.209 12.1103 190.171 11.9749 190.171 11.8588C190.171 11.7428 190.132 11.6267 190.054 11.5106C189.59 10.3113 188.739 9.44083 187.501 8.89919C186.843 8.58969 186.089 8.41558 185.238 8.37689C184.387 8.3382 183.497 8.31886 182.568 8.31886H175.837C175.759 8.39624 175.682 8.42525 175.605 8.40591C175.527 8.38657 175.45 8.37689 175.372 8.37689C174.908 8.49295 174.599 8.68639 174.444 8.95721C174.25 9.26671 174.163 9.66325 174.183 10.1469C174.202 10.6305 174.212 11.1044 174.212 11.5686V16.9656C174.212 17.4299 174.212 17.8941 174.212 18.3584C174.212 18.8226 174.308 19.1902 174.502 19.461C174.657 19.6931 174.908 19.8479 175.256 19.9252C175.605 20.0026 175.991 20.0607 176.417 20.0993C176.843 20.138 177.287 20.1477 177.752 20.1284C178.216 20.109 178.622 20.0993 178.97 20.0993H182.394C182.665 20.0993 182.955 20.109 183.265 20.1284C183.574 20.1477 183.845 20.1187 184.077 20.0413H184.832C185.141 19.9639 185.441 19.9253 185.731 19.9253C186.021 19.9253 186.302 19.8866 186.573 19.8092C187.23 19.6158 187.811 19.3643 188.313 19.0548C188.816 18.7453 189.242 18.3391 189.59 17.8361C189.822 17.4879 189.996 17.101 190.112 16.6755C190.229 16.2499 190.345 15.7663 190.461 15.2247V15.2247Z" fill="#2D2926"/>
<path d="M236.828 0.484663C244.334 0.368603 249.498 2.59316 252.323 7.15834C252.71 7.77735 253.009 8.41569 253.222 9.07338C253.435 9.73107 253.638 10.4468 253.831 11.2206C253.909 11.5301 253.938 11.8879 253.918 12.2942C253.899 12.7004 253.812 13.0002 253.657 13.1936C253.464 13.4258 253.193 13.5709 252.845 13.6289C252.497 13.6869 252.11 13.7159 251.684 13.7159H248.028C247.68 13.7159 247.332 13.7159 246.984 13.7159C246.635 13.7159 246.345 13.6772 246.113 13.5999C245.649 13.4064 245.359 13.0969 245.243 12.6714C245.127 12.2458 244.972 11.8202 244.778 11.3947C244.624 11.0078 244.411 10.6016 244.14 10.176C243.869 9.75042 243.579 9.42158 243.27 9.18945C242.728 8.80257 242.206 8.47372 241.703 8.20291C241.238 8.00947 240.668 7.84505 239.991 7.70964C239.314 7.57423 238.617 7.48718 237.902 7.4485C237.186 7.40981 236.48 7.42916 235.784 7.50653C235.087 7.58391 234.468 7.73866 233.927 7.97079C233.037 8.35767 232.35 8.81226 231.866 9.33455C231.383 9.85684 231.044 10.6403 230.851 11.6848C230.773 11.9556 230.754 12.2555 230.793 12.5843C230.831 12.9132 230.89 13.1743 230.967 13.3678C231.276 14.1802 231.712 14.7508 232.273 15.0797C232.834 15.4085 233.501 15.7277 234.275 16.0372C234.7 16.2307 235.136 16.3757 235.58 16.4725C236.025 16.5692 236.48 16.6949 236.944 16.8497C237.989 17.1979 239.062 17.4977 240.165 17.7492C241.268 18.0006 242.36 18.2811 243.444 18.5906C243.637 18.668 243.831 18.7067 244.024 18.7067C244.217 18.7067 244.411 18.7454 244.604 18.8227C245.378 19.0936 246.181 19.345 247.013 19.5771C247.844 19.8093 248.589 20.1381 249.247 20.5637C250.291 21.2214 251.191 21.8791 251.945 22.5368C252.7 23.1945 253.406 24.0456 254.064 25.0902C254.257 25.3997 254.421 25.7479 254.557 26.1347C254.692 26.5216 254.837 26.9085 254.992 27.2954C255.031 27.4114 255.05 27.5178 255.05 27.6146C255.05 27.7113 255.069 27.7983 255.108 27.8757C255.263 28.4947 255.34 29.2685 255.34 30.197C255.418 30.3904 255.418 30.5839 255.34 30.7773V31.8219C255.263 32.2474 255.195 32.6537 255.137 33.0405C255.079 33.4274 254.992 33.8143 254.876 34.2012C254.644 34.8976 254.392 35.5359 254.122 36.1162C253.851 36.6966 253.522 37.2575 253.135 37.7991C252.98 37.9926 252.826 38.157 252.671 38.2924C252.516 38.4278 252.381 38.5922 252.265 38.7857C252.071 39.0178 251.858 39.2403 251.626 39.4531C251.394 39.6658 251.143 39.869 250.872 40.0624C250.678 40.2171 250.475 40.3719 250.263 40.5267C250.05 40.6814 249.827 40.8362 249.595 40.9909C248.937 41.4165 248.251 41.7647 247.535 42.0355C246.819 42.3063 246.075 42.5771 245.301 42.8479C244.759 43.0414 244.198 43.1671 243.618 43.2251C243.038 43.2832 242.457 43.3702 241.877 43.4863C241.606 43.5637 241.345 43.5927 241.093 43.5733C240.842 43.554 240.6 43.583 240.368 43.6604H239.904C239.826 43.6604 239.72 43.6507 239.585 43.6314C239.449 43.612 239.343 43.6217 239.265 43.6604C239.072 43.6991 238.743 43.7184 238.279 43.7184C237.815 43.7184 237.486 43.6991 237.292 43.6604H236.712C236.441 43.583 236.161 43.554 235.871 43.5733C235.58 43.5927 235.319 43.5637 235.087 43.4863C234.894 43.4863 234.72 43.4766 234.565 43.4573C234.41 43.4379 234.236 43.4089 234.043 43.3702C233.578 43.2542 233.095 43.1574 232.592 43.0801C232.089 43.0027 231.625 42.8866 231.199 42.7319C229.303 42.1128 227.64 41.3294 226.208 40.3816C224.777 39.4337 223.577 38.186 222.61 36.6385C221.991 35.71 221.508 34.6074 221.159 33.3307C221.082 33.0986 221.034 32.8664 221.014 32.6343C220.995 32.4022 220.947 32.1507 220.869 31.8799C220.792 31.5704 220.734 31.1932 220.695 30.7483C220.657 30.3034 220.734 29.9649 220.927 29.7327C221.121 29.4232 221.401 29.2395 221.769 29.1814C222.136 29.1234 222.552 29.0944 223.017 29.0944H226.673C226.982 29.0944 227.311 29.0944 227.659 29.0944C228.007 29.0944 228.317 29.1524 228.588 29.2685C229.013 29.4619 229.265 29.7811 229.342 30.226C229.419 30.6709 229.555 31.1255 229.748 31.5898C229.903 32.054 230.096 32.4796 230.329 32.8665C230.561 33.2533 230.812 33.6209 231.083 33.9691C231.276 34.2012 231.489 34.414 231.721 34.6074C231.953 34.8009 232.186 34.9749 232.418 35.1297C233.269 35.6713 234.313 36.1162 235.551 36.4644C235.822 36.5418 236.083 36.5805 236.335 36.5805C236.586 36.5805 236.867 36.6192 237.176 36.6965H237.466C237.776 36.7739 238.202 36.8126 238.743 36.8126C239.285 36.8126 239.71 36.7739 240.02 36.6965C240.136 36.6579 240.329 36.6385 240.6 36.6385C240.794 36.5998 240.997 36.5708 241.209 36.5515C241.422 36.5321 241.625 36.4838 241.819 36.4064C243.134 36.0582 244.179 35.5939 244.953 35.0136C245.726 34.4333 246.268 33.4661 246.577 32.112C246.655 31.8412 246.664 31.5317 246.606 31.1835C246.548 30.8353 246.481 30.5645 246.403 30.3711C246.016 29.3265 245.359 28.514 244.43 27.9337C244.314 27.8563 244.101 27.7403 243.792 27.5855C243.212 27.2373 242.564 26.9569 241.848 26.7441C241.132 26.5313 240.426 26.3088 239.73 26.0767C239.459 25.9993 239.198 25.9316 238.946 25.8736C238.695 25.8156 238.414 25.7479 238.105 25.6705C237.486 25.4771 236.857 25.3126 236.219 25.1772C235.58 25.0418 234.971 24.8774 234.391 24.684C234.197 24.6066 234.043 24.5679 233.926 24.5679C233.81 24.5679 233.675 24.5292 233.52 24.4518C233.211 24.3744 232.93 24.2971 232.679 24.2197C232.427 24.1423 232.147 24.065 231.837 23.9876C230.948 23.6781 230.096 23.3589 229.284 23.03C228.471 22.7012 227.717 22.324 227.021 21.8984C226.131 21.3181 225.318 20.6411 224.583 19.8673C223.848 19.0935 223.268 18.2037 222.842 17.1978C222.688 16.8496 222.572 16.4918 222.494 16.1243C222.417 15.7567 222.32 15.3602 222.204 14.9346C222.127 14.5864 222.069 14.0835 222.03 13.4258C221.991 12.7681 222.011 12.2264 222.088 11.8009C222.127 11.6461 222.146 11.414 222.146 11.1045C222.262 10.6789 222.359 10.2727 222.436 9.88582C222.514 9.49894 222.63 9.11207 222.784 8.72519C223.365 7.37111 224.109 6.22014 225.019 5.27228C225.928 4.32443 226.982 3.46362 228.181 2.68986C228.955 2.2256 229.787 1.85807 230.677 1.58725C231.567 1.31643 232.514 1.06496 233.52 0.832838C233.907 0.755458 234.284 0.707097 234.652 0.687757C235.019 0.668417 235.397 0.620057 235.783 0.542677C235.9 0.503987 236.083 0.503987 236.335 0.542677C236.586 0.581367 236.751 0.562018 236.828 0.484648L236.828 0.484663Z" fill="#2D2926"/>
<path d="M262.42 1.35513H284.124H289.173C289.637 1.35513 290.082 1.37447 290.508 1.41316C290.933 1.45185 291.243 1.60661 291.436 1.87743C291.513 1.99349 291.562 2.1289 291.581 2.28365C291.6 2.4384 291.649 2.59313 291.726 2.74789V3.38625C291.765 3.65707 291.775 3.94722 291.755 4.25673C291.736 4.56623 291.726 4.85639 291.726 5.12721C291.726 5.43671 291.736 5.73654 291.755 6.0267C291.775 6.31686 291.765 6.59735 291.726 6.86816C291.688 7.0616 291.668 7.35175 291.668 7.73863C291.552 8.20289 291.359 8.51239 291.088 8.66714C290.856 8.82189 290.566 8.89928 290.217 8.89928C289.869 8.89928 289.502 8.89928 289.115 8.89928H285.111H274.607C274.297 8.89928 273.939 8.8896 273.533 8.87025C273.127 8.85091 272.721 8.85091 272.315 8.87025C271.908 8.88959 271.531 8.92828 271.183 8.98631C270.835 9.04434 270.583 9.13141 270.429 9.24747C270.158 9.44091 269.993 9.72138 269.935 10.0889C269.877 10.4565 269.848 10.8723 269.848 11.3366V14.6444V16.3273C269.926 16.6368 270.003 16.898 270.08 17.1108C270.158 17.3236 270.293 17.488 270.487 17.604C270.719 17.7588 270.99 17.8458 271.299 17.8652C271.609 17.8845 271.937 17.8942 272.286 17.8942H275.419H285.401C285.672 17.8942 286.01 17.8845 286.416 17.8652C286.823 17.8458 287.219 17.8458 287.606 17.8652C287.993 17.8845 288.351 17.9135 288.68 17.9522C289.008 17.9909 289.25 18.0683 289.405 18.1844C289.598 18.3004 289.734 18.5326 289.811 18.8808C289.889 19.2289 289.937 19.6062 289.956 20.0124C289.976 20.4186 289.976 20.8345 289.956 21.2601C289.937 21.6856 289.927 22.0532 289.927 22.3627C289.927 22.6335 289.927 22.9043 289.927 23.1751C289.927 23.4459 289.889 23.6781 289.811 23.8715C289.734 24.181 289.579 24.4325 289.347 24.6259C289.153 24.742 288.892 24.8193 288.563 24.858C288.235 24.8967 287.867 24.9161 287.461 24.9161C287.055 24.9161 286.648 24.9064 286.242 24.8871C285.836 24.8677 285.497 24.858 285.227 24.858H273.91C273.446 24.858 273.001 24.8484 272.576 24.829C272.15 24.8097 271.754 24.829 271.386 24.887C271.019 24.9451 270.709 25.0611 270.458 25.2352C270.206 25.4093 270.022 25.6705 269.906 26.0187C269.868 26.2121 269.848 26.4152 269.848 26.628C269.848 26.8408 269.848 27.0439 269.848 27.2373V29.4425V32.6923C269.848 33.1566 269.877 33.5725 269.935 33.94C269.993 34.3075 270.158 34.588 270.429 34.7815C270.545 34.8975 270.69 34.9652 270.864 34.9846C271.038 35.0039 271.222 35.0523 271.415 35.1297H271.995C272.189 35.1683 272.402 35.178 272.634 35.1587C272.866 35.1393 273.079 35.1297 273.272 35.1297H275.709H286.619H289.695C290.005 35.1297 290.304 35.1297 290.595 35.1297C290.885 35.1297 291.146 35.1877 291.378 35.3038C291.688 35.4198 291.9 35.6326 292.016 35.9421C292.094 36.1355 292.142 36.3677 292.161 36.6385C292.181 36.9093 292.19 37.1995 292.19 37.509V40.1784C292.19 40.6427 292.171 41.0779 292.132 41.4842C292.094 41.8904 291.92 42.1902 291.61 42.3837C291.378 42.5771 291.078 42.6738 290.711 42.6738C290.343 42.6738 289.947 42.6738 289.521 42.6738H285.169H267.991H263.407C262.865 42.6738 262.391 42.6448 261.985 42.5868C261.579 42.5287 261.279 42.345 261.085 42.0355C260.931 41.8033 260.853 41.5035 260.853 41.136C260.853 40.7684 260.853 40.4106 260.853 40.0624V35.8841V20.0994V7.44846V3.85048C260.853 3.50229 260.853 3.1541 260.853 2.80591C260.853 2.45772 260.931 2.18689 261.085 1.99345C261.24 1.72263 261.53 1.52921 261.956 1.41315C262.033 1.37446 262.111 1.36478 262.188 1.38412C262.265 1.40346 262.343 1.39379 262.42 1.3551L262.42 1.35513Z" fill="#2D2926"/>
<path d="M300.083 1.35512H304.783C305.209 1.35512 305.625 1.34545 306.031 1.3261C306.437 1.30676 306.795 1.37446 307.105 1.52921C307.492 1.68396 307.791 1.91609 308.004 2.22559C308.217 2.53509 308.42 2.8446 308.614 3.1541L310.703 6.46192C312.057 8.66713 313.421 10.8627 314.794 13.0485C316.167 15.2344 317.531 17.4299 318.885 19.6352C319.543 20.6797 320.191 21.734 320.829 22.7979C321.468 23.8618 322.135 24.8967 322.831 25.9026C322.986 26.1347 323.131 26.3669 323.267 26.599C323.402 26.8311 323.586 27.0439 323.818 27.2373C323.895 27.3147 323.992 27.3921 324.108 27.4695C324.224 27.5469 324.34 27.5469 324.456 27.4695C324.727 27.3921 324.862 27.218 324.862 26.9472C324.862 26.6764 324.901 26.3862 324.979 26.0767C325.017 25.8059 325.027 25.506 325.008 25.1772C324.988 24.8484 324.979 24.5292 324.979 24.2197V20.5637V7.10027V4.89505C324.979 4.70161 324.969 4.50817 324.95 4.31473C324.93 4.12129 324.94 3.9472 324.979 3.79245V3.1541C324.979 2.61247 325.095 2.1869 325.327 1.8774C325.52 1.60658 325.781 1.45183 326.11 1.41314C326.439 1.37445 326.816 1.35511 327.242 1.35511H330.782C331.091 1.35511 331.401 1.35511 331.71 1.35511C332.02 1.35511 332.291 1.39379 332.523 1.47116C333.026 1.6646 333.296 2.00313 333.335 2.48673C333.374 2.97033 333.393 3.54098 333.393 4.19867V10.5822V34.8975V39.7722C333.393 40.1978 333.403 40.6234 333.422 41.0489C333.442 41.4745 333.374 41.8033 333.219 42.0355C333.064 42.2676 332.881 42.4127 332.668 42.4707C332.455 42.5287 332.194 42.5964 331.884 42.6738H329.853H326.661C326.313 42.6738 325.975 42.6738 325.646 42.6738C325.317 42.6738 325.037 42.6158 324.804 42.4997C324.379 42.3063 324.05 42.0451 323.818 41.7163C323.586 41.3874 323.354 41.0296 323.122 40.6427C322.773 40.1011 322.435 39.5498 322.106 38.9888C321.777 38.4278 321.439 37.8765 321.09 37.3349L312.386 23.4072C311.844 22.5174 311.312 21.6566 310.79 20.8248C310.267 19.993 309.736 19.1322 309.194 18.2424C309 17.9716 308.778 17.633 308.527 17.2268C308.275 16.8206 307.937 16.6175 307.511 16.6175C307.201 16.8883 307.037 17.1978 307.018 17.546C306.998 17.8942 306.989 18.3391 306.989 18.8807V22.943V36.8126V39.0758C306.989 39.2693 306.998 39.4627 307.018 39.6561C307.037 39.8496 307.008 40.043 306.931 40.2365V40.8748C306.931 41.4938 306.834 41.9387 306.64 42.2095C306.447 42.4417 306.186 42.5771 305.857 42.6158C305.528 42.6544 305.151 42.6738 304.725 42.6738H301.185C300.876 42.6738 300.566 42.6738 300.257 42.6738C299.947 42.6738 299.677 42.6351 299.445 42.5577C298.942 42.3643 298.661 42.0161 298.603 41.5132C298.545 41.0102 298.516 40.4299 298.516 39.7722V33.0985V9.82773V4.43077C298.516 4.0052 298.516 3.56029 298.516 3.09604C298.516 2.63178 298.593 2.26425 298.748 1.99343C298.903 1.72261 299.174 1.52916 299.561 1.4131C299.638 1.4131 299.725 1.40343 299.822 1.38408C299.918 1.36474 300.005 1.35506 300.083 1.35506V1.35512Z" fill="#2D2926"/>
<path d="M343.085 1.35505H347.727C348.385 1.35505 348.955 1.38407 349.439 1.4421C349.923 1.50013 350.261 1.79996 350.455 2.34159C350.532 2.53503 350.571 2.73814 350.571 2.95092C350.571 3.1637 350.571 3.36682 350.571 3.56025V5.59136V12.6132C350.571 13.2709 350.551 14.0157 350.513 14.8475C350.474 15.6792 350.609 16.3079 350.919 16.7335C351.112 16.9656 351.335 17.0914 351.586 17.1107C351.838 17.1301 352.118 17.1784 352.428 17.2558H363.57C364.266 17.2558 364.982 17.2461 365.717 17.2268C366.452 17.2074 366.955 16.9656 367.226 16.5014C367.419 16.1532 367.497 15.6309 367.458 14.9345C367.419 14.2381 367.4 13.6191 367.4 13.0775V5.53333C367.4 4.95301 367.39 4.27598 367.371 3.50222C367.352 2.72846 367.477 2.18683 367.748 1.87733C367.864 1.68389 368.106 1.54848 368.473 1.47111C368.841 1.39373 369.257 1.34537 369.721 1.32603C370.185 1.30669 370.65 1.30669 371.114 1.32603C371.578 1.34537 371.984 1.35505 372.333 1.35505C372.99 1.35505 373.677 1.34538 374.393 1.32603C375.108 1.30669 375.64 1.45177 375.989 1.76127C376.259 1.95471 376.395 2.27388 376.395 2.71879C376.395 3.1637 376.395 3.59894 376.395 4.02451V9.71165V33.4467V39.7722C376.395 40.2364 376.395 40.72 376.395 41.223C376.395 41.7259 376.259 42.0741 375.989 42.2675C375.64 42.577 375.089 42.7221 374.335 42.7028C373.58 42.6834 372.874 42.6738 372.217 42.6738C371.868 42.6738 371.472 42.6834 371.027 42.7028C370.582 42.7221 370.137 42.7221 369.692 42.7028C369.247 42.6834 368.841 42.6447 368.474 42.5867C368.106 42.5287 367.864 42.403 367.748 42.2095C367.632 42.0548 367.545 41.7936 367.487 41.4261C367.429 41.0585 367.39 40.6717 367.371 40.2654C367.352 39.8592 367.352 39.453 367.371 39.0468C367.39 38.6405 367.4 38.2827 367.4 37.9732V29.5586V27.8756C367.4 27.7209 367.41 27.5661 367.429 27.4114C367.448 27.2566 367.439 27.1019 367.4 26.9471V26.3668C367.361 26.2507 367.342 26.1347 367.342 26.0186C367.342 25.9025 367.323 25.7865 367.284 25.6704C367.013 25.1288 366.51 24.858 365.775 24.858C365.04 24.858 364.286 24.858 363.512 24.858H352.079C351.77 24.9353 351.519 25.003 351.325 25.0611C351.132 25.1191 350.958 25.2642 350.803 25.4963C350.725 25.6898 350.648 25.9799 350.571 26.3668V26.9471C350.532 27.1406 350.522 27.363 350.542 27.6145C350.561 27.866 350.571 28.0884 350.571 28.2819V30.8353V38.8437C350.571 39.424 350.571 40.043 350.571 40.7007C350.571 41.3584 350.455 41.8613 350.223 42.2095C350.106 42.403 349.865 42.5287 349.497 42.5867C349.13 42.6447 348.723 42.6834 348.278 42.7028C347.834 42.7221 347.379 42.7221 346.915 42.7028C346.45 42.6834 346.044 42.6738 345.696 42.6738C345.154 42.6738 344.497 42.6834 343.723 42.7028C342.949 42.7221 342.408 42.6157 342.098 42.3836C341.789 42.1515 341.614 41.7839 341.576 41.281C341.537 40.778 341.518 40.2557 341.518 39.7141V33.0405V9.82769V4.43073C341.518 4.00516 341.518 3.56025 341.518 3.096C341.518 2.63174 341.595 2.26421 341.75 1.99339C341.905 1.72257 342.175 1.52912 342.562 1.41306C342.64 1.41306 342.727 1.40339 342.823 1.38404C342.92 1.3647 343.007 1.35502 343.085 1.35502L343.085 1.35505Z" fill="#2D2926"/>
<path d="M419.513 39.9464C419.551 40.1011 419.619 40.2946 419.716 40.5267C419.812 40.7588 419.89 41.0006 419.948 41.2521C420.006 41.5035 420.015 41.7453 419.977 41.9775C419.938 42.2096 419.803 42.3837 419.571 42.4998C419.261 42.6932 418.748 42.7706 418.033 42.7319C417.317 42.6932 416.727 42.6739 416.263 42.6739H413.535C413.226 42.6739 412.945 42.6835 412.694 42.7029C412.442 42.7222 412.201 42.6932 411.968 42.6158C411.543 42.4998 411.233 42.2677 411.04 41.9195C410.846 41.61 410.701 41.2811 410.605 40.9329C410.508 40.5847 410.382 40.2365 410.227 39.8883C410.034 39.2693 409.831 38.6503 409.618 38.0313C409.405 37.4123 409.183 36.8127 408.951 36.2323C408.835 35.8842 408.728 35.565 408.632 35.2748C408.535 34.9846 408.428 34.7235 408.312 34.4914C408.196 34.2592 408.022 34.0561 407.79 33.882C407.558 33.7079 407.248 33.5822 406.862 33.5048C406.668 33.5048 406.484 33.4952 406.31 33.4758C406.136 33.4565 405.952 33.4468 405.759 33.4468H396.59C395.932 33.4468 395.226 33.4371 394.472 33.4178C393.717 33.3984 393.127 33.5435 392.702 33.853C392.392 34.0852 392.179 34.3946 392.063 34.7815C391.947 35.1684 391.812 35.5553 391.657 35.9422C391.348 36.5999 391.087 37.2866 390.874 38.0023C390.661 38.718 390.419 39.4241 390.148 40.1204C389.994 40.5073 389.849 40.9136 389.713 41.3391C389.578 41.7647 389.355 42.0935 389.046 42.3257C388.852 42.4804 388.572 42.5868 388.204 42.6448C387.837 42.7029 387.431 42.7319 386.986 42.7319C386.541 42.7319 386.086 42.7222 385.622 42.7029C385.158 42.6835 384.751 42.6739 384.403 42.6739C383.9 42.6739 383.291 42.6835 382.575 42.7029C381.859 42.7222 381.347 42.6352 381.037 42.4417C380.844 42.3257 380.738 42.1516 380.718 41.9194C380.699 41.6873 380.718 41.4455 380.776 41.194C380.834 40.9426 380.902 40.7008 380.979 40.4686C381.057 40.2365 381.134 40.0431 381.211 39.8883C381.598 38.9985 381.956 38.0893 382.285 37.1608C382.614 36.2323 382.952 35.3232 383.301 34.4333C383.455 34.1238 383.571 33.8143 383.649 33.5048C383.726 33.1953 383.842 32.8858 383.997 32.5763C384.306 31.7639 384.616 30.9321 384.925 30.0809C385.235 29.2298 385.545 28.398 385.854 27.5856C386.164 26.8118 386.454 26.0477 386.725 25.2933C386.995 24.5389 387.285 23.7748 387.595 23.0011C388.485 20.8732 389.307 18.726 390.061 16.5595C390.816 14.393 391.638 12.2458 392.528 10.118C392.605 9.92452 392.663 9.75042 392.702 9.59567C392.74 9.44092 392.799 9.26683 392.876 9.07339C393.185 8.26094 393.495 7.42915 393.804 6.57802C394.114 5.72689 394.443 4.8951 394.791 4.08265C394.984 3.65708 395.149 3.22184 395.284 2.77693C395.42 2.33202 395.661 1.97416 396.01 1.70334C396.203 1.58728 396.455 1.49055 396.764 1.41317C396.841 1.37448 396.919 1.36481 396.996 1.38415C397.074 1.40349 397.151 1.39382 397.228 1.35513H402.335C402.761 1.35513 403.196 1.34547 403.641 1.32612C404.086 1.30678 404.444 1.39382 404.714 1.58726C405.14 1.81939 405.42 2.1579 405.556 2.60281C405.691 3.04772 405.856 3.50231 406.049 3.96657C406.32 4.62426 406.571 5.27229 406.804 5.91064C407.036 6.54899 407.287 7.197 407.558 7.8547C407.635 8.08683 407.713 8.31896 407.79 8.55108C407.867 8.78321 407.945 9.01534 408.022 9.24746C408.332 10.0212 408.622 10.7853 408.893 11.5397C409.164 12.2941 409.454 13.0582 409.763 13.832C410.537 15.7664 411.262 17.7201 411.939 19.6932C412.616 21.6663 413.361 23.62 414.174 25.5544C414.251 25.7092 414.299 25.8543 414.319 25.9897C414.338 26.1251 414.386 26.2702 414.464 26.4249C414.696 27.0439 414.928 27.6629 415.16 28.2819C415.392 28.9009 415.624 29.5199 415.857 30.1389C416.011 30.4484 416.127 30.7483 416.205 31.0384C416.282 31.3286 416.379 31.6284 416.495 31.9379C416.998 33.1759 417.462 34.414 417.888 35.652C418.313 36.89 418.777 38.1086 419.28 39.308C419.358 39.424 419.396 39.5304 419.396 39.6272C419.396 39.7239 419.435 39.8303 419.513 39.9463V39.9464ZM404.482 26.6571C404.985 26.4636 405.217 26.1348 405.179 25.6705C405.14 25.2063 405.024 24.7613 404.83 24.3358C404.753 24.181 404.714 24.036 404.714 23.9005C404.714 23.7651 404.676 23.6201 404.598 23.4653C404.095 22.1499 403.631 20.8152 403.206 19.4611C402.78 18.107 402.296 16.753 401.755 15.3989C401.677 15.2054 401.6 14.9636 401.523 14.6735C401.445 14.3833 401.349 14.1125 401.232 13.861C401.116 13.6096 400.981 13.3871 400.826 13.1937C400.672 13.0002 400.478 12.9035 400.246 12.9035C400.169 12.9809 400.091 13.0389 400.014 13.0776C399.936 13.1163 399.859 13.1743 399.782 13.2517C399.472 13.6386 399.25 14.1028 399.114 14.6445C398.979 15.1861 398.814 15.7084 398.621 16.2113C398.157 17.2946 397.741 18.3972 397.373 19.5191C397.006 20.6411 396.609 21.763 396.184 22.885C396.029 23.2719 395.894 23.6491 395.777 24.0166C395.661 24.3842 395.545 24.7807 395.429 25.2063C395.313 25.5158 395.333 25.864 395.487 26.2508C395.681 26.5217 396 26.6764 396.445 26.7151C396.89 26.7538 397.344 26.7731 397.809 26.7731H402.219C402.567 26.7731 402.954 26.7731 403.38 26.7731C403.805 26.7731 404.173 26.7344 404.482 26.6571V26.6571Z" fill="#2D2926"/>
</svg>
